<svg width="328" height="48" viewBox="0 0 328 48" fill="none" xmlns="http://www.w3.org/2000/svg">
<rect width="328" height="48" rx="4" fill="#EF4565"/>
<path d="M76.045 22.239V26.06H81.49C80.778 28.375 78.843 30.032 76.045 30.032C72.713 30.032 70.012 27.331 70.012 24C70.012 20.669 72.713 17.968 76.045 17.968C77.543 17.968 78.911 18.517 79.966 19.421L82.78 16.607C81.003 14.988 78.639 14 76.045 14C70.521 14 66.043 18.477 66.043 24C66.043 29.523 70.521 34 76.045 34C84.441 34 86.294 26.15 85.471 22.252L76.045 22.239Z" fill="#FFFFFE"/>
<path d="M106.608 22.2898C106.25 19.7045 104.261 18.2045 101.682 18.2045C98.642 18.2045 96.3523 20.4205 96.3523 24.1818C96.3523 27.9375 98.6136 30.1591 101.682 30.1591C104.449 30.1591 106.284 28.3693 106.608 26.1477L104.483 26.1364C104.216 27.5 103.102 28.267 101.71 28.267C99.8239 28.267 98.4716 26.8523 98.4716 24.1818C98.4716 21.5568 99.8125 20.0966 101.716 20.0966C103.131 20.0966 104.239 20.8977 104.483 22.2898H106.608ZM112.254 30.1705C114.811 30.1705 116.436 28.3693 116.436 25.6705C116.436 22.9659 114.811 21.1591 112.254 21.1591C109.697 21.1591 108.072 22.9659 108.072 25.6705C108.072 28.3693 109.697 30.1705 112.254 30.1705ZM112.266 28.5227C110.851 28.5227 110.158 27.2614 110.158 25.6648C110.158 24.0682 110.851 22.7898 112.266 22.7898C113.658 22.7898 114.351 24.0682 114.351 25.6648C114.351 27.2614 113.658 28.5227 112.266 28.5227ZM120.239 24.8864C120.239 23.625 121 22.8977 122.085 22.8977C123.148 22.8977 123.784 23.5966 123.784 24.7614V30H125.841V24.4432C125.847 22.3523 124.653 21.1591 122.852 21.1591C121.545 21.1591 120.648 21.7841 120.25 22.7557H120.148V21.2727H118.182V30H120.239V24.8864ZM132.29 21.2727H130.568V19.1818H128.511V21.2727H127.273V22.8636H128.511V27.7159C128.5 29.358 129.693 30.1648 131.239 30.1193C131.824 30.1023 132.227 29.9886 132.449 29.9148L132.102 28.3068C131.989 28.3352 131.756 28.3864 131.5 28.3864C130.983 28.3864 130.568 28.2045 130.568 27.375V22.8636H132.29V21.2727ZM134.01 30H136.067V21.2727H134.01V30ZM135.044 20.0341C135.697 20.0341 136.232 19.5341 136.232 18.9205C136.232 18.3011 135.697 17.8011 135.044 17.8011C134.385 17.8011 133.851 18.3011 133.851 18.9205C133.851 19.5341 134.385 20.0341 135.044 20.0341ZM140.239 24.8864C140.239 23.625 141 22.8977 142.085 22.8977C143.148 22.8977 143.784 23.5966 143.784 24.7614V30H145.841V24.4432C145.847 22.3523 144.653 21.1591 142.852 21.1591C141.545 21.1591 140.648 21.7841 140.25 22.7557H140.148V21.2727H138.182V30H140.239V24.8864ZM153.494 26.3295C153.494 27.6591 152.545 28.3182 151.636 28.3182C150.648 28.3182 149.989 27.6193 149.989 26.5114V21.2727H147.932V26.8295C147.932 28.9261 149.125 30.1136 150.841 30.1136C152.148 30.1136 153.068 29.4261 153.466 28.4489H153.557V30H155.551V21.2727H153.494V26.3295ZM160.178 30.1761C161.547 30.1761 162.365 29.5341 162.74 28.8011H162.808V30H164.786V24.1591C164.786 21.8523 162.905 21.1591 161.24 21.1591C159.405 21.1591 157.996 21.9773 157.541 23.5682L159.462 23.8409C159.666 23.2443 160.246 22.733 161.251 22.733C162.206 22.733 162.729 23.2216 162.729 24.0795V24.1136C162.729 24.7045 162.109 24.733 160.57 24.8977C158.876 25.0795 157.257 25.5852 157.257 27.5511C157.257 29.267 158.513 30.1761 160.178 30.1761ZM160.712 28.6648C159.854 28.6648 159.24 28.2727 159.24 27.517C159.24 26.7273 159.928 26.3977 160.848 26.267C161.388 26.1932 162.467 26.0568 162.734 25.8409V26.8693C162.734 27.8409 161.95 28.6648 160.712 28.6648ZM166.854 30H168.911V24.8693C168.911 23.7614 169.746 22.9773 170.876 22.9773C171.223 22.9773 171.655 23.0398 171.831 23.0966V21.2045C171.643 21.1705 171.32 21.1477 171.092 21.1477C170.092 21.1477 169.257 21.7159 168.939 22.7273H168.848V21.2727H166.854V30ZM180.973 30.1705C183.166 30.1705 184.564 28.8693 184.712 27.017H182.746C182.57 27.9545 181.893 28.4943 180.99 28.4943C179.706 28.4943 178.876 27.4205 178.876 25.6364C178.876 23.875 179.723 22.8182 180.99 22.8182C181.979 22.8182 182.587 23.4545 182.746 24.2955H184.712C184.57 22.4034 183.092 21.1591 180.962 21.1591C178.405 21.1591 176.791 23.0057 176.791 25.6705C176.791 28.3125 178.365 30.1705 180.973 30.1705ZM190.207 30.1705C192.764 30.1705 194.389 28.3693 194.389 25.6705C194.389 22.9659 192.764 21.1591 190.207 21.1591C187.651 21.1591 186.026 22.9659 186.026 25.6705C186.026 28.3693 187.651 30.1705 190.207 30.1705ZM190.219 28.5227C188.804 28.5227 188.111 27.2614 188.111 25.6648C188.111 24.0682 188.804 22.7898 190.219 22.7898C191.611 22.7898 192.304 24.0682 192.304 25.6648C192.304 27.2614 191.611 28.5227 190.219 28.5227ZM198.192 24.8864C198.192 23.625 198.953 22.8977 200.038 22.8977C201.101 22.8977 201.737 23.5966 201.737 24.7614V30H203.794V24.4432C203.8 22.3523 202.607 21.1591 200.805 21.1591C199.499 21.1591 198.601 21.7841 198.203 22.7557H198.101V21.2727H196.135V30H198.192V24.8864ZM217.74 22.0795H219.888C219.53 19.7955 217.553 18.2045 214.979 18.2045C211.933 18.2045 209.649 20.4432 209.649 24.1932C209.649 27.875 211.831 30.1591 215.041 30.1591C217.922 30.1591 219.984 28.3068 219.984 25.3068V23.9091H215.263V25.5568H217.945C217.911 27.2159 216.803 28.267 215.053 28.267C213.104 28.267 211.768 26.8068 211.768 24.1705C211.768 21.5511 213.126 20.0966 215.007 20.0966C216.411 20.0966 217.365 20.8466 217.74 22.0795ZM225.739 30.1705C228.295 30.1705 229.92 28.3693 229.92 25.6705C229.92 22.9659 228.295 21.1591 225.739 21.1591C223.182 21.1591 221.557 22.9659 221.557 25.6705C221.557 28.3693 223.182 30.1705 225.739 30.1705ZM225.75 28.5227C224.335 28.5227 223.642 27.2614 223.642 25.6648C223.642 24.0682 224.335 22.7898 225.75 22.7898C227.142 22.7898 227.835 24.0682 227.835 25.6648C227.835 27.2614 227.142 28.5227 225.75 28.5227ZM235.473 30.1705C238.03 30.1705 239.655 28.3693 239.655 25.6705C239.655 22.9659 238.03 21.1591 235.473 21.1591C232.916 21.1591 231.291 22.9659 231.291 25.6705C231.291 28.3693 232.916 30.1705 235.473 30.1705ZM235.484 28.5227C234.07 28.5227 233.376 27.2614 233.376 25.6648C233.376 24.0682 234.07 22.7898 235.484 22.7898C236.876 22.7898 237.57 24.0682 237.57 25.6648C237.57 27.2614 236.876 28.5227 235.484 28.5227ZM245.196 33.4545C247.554 33.4545 249.293 32.375 249.293 30.142V21.2727H247.264V22.7159H247.151C246.838 22.0852 246.185 21.1591 244.645 21.1591C242.628 21.1591 241.043 22.7386 241.043 25.608C241.043 28.4545 242.628 29.875 244.639 29.875C246.134 29.875 246.832 29.0739 247.151 28.4318H247.253V30.0852C247.253 31.3693 246.401 31.8977 245.23 31.8977C243.991 31.8977 243.446 31.3125 243.196 30.8011L241.344 31.25C241.719 32.4716 242.974 33.4545 245.196 33.4545ZM245.213 28.2614C243.855 28.2614 243.139 27.2045 243.139 25.5966C243.139 24.0114 243.844 22.8466 245.213 22.8466C246.537 22.8466 247.264 23.9432 247.264 25.5966C247.264 27.2614 246.526 28.2614 245.213 28.2614ZM253.457 18.3636H251.401V30H253.457V18.3636ZM259.436 30.1705C261.47 30.1705 262.868 29.1761 263.232 27.6591L261.311 27.4432C261.033 28.1818 260.351 28.5682 259.464 28.5682C258.135 28.5682 257.254 27.6932 257.237 26.1989H263.317V25.5682C263.317 22.5057 261.476 21.1591 259.328 21.1591C256.828 21.1591 255.197 22.9943 255.197 25.6875C255.197 28.4261 256.805 30.1705 259.436 30.1705ZM257.243 24.8125C257.305 23.6989 258.129 22.7614 259.357 22.7614C260.538 22.7614 261.334 23.625 261.345 24.8125H257.243Z" fill="#FFFFFE"/>
</svg>
