<svg width="328" height="50" viewBox="0 0 328 50" fill="none" xmlns="http://www.w3.org/2000/svg">
<rect y="2" width="328" height="48" rx="16" fill="#6B47DC"/>
<rect y="2" width="328" height="48" rx="16" fill="#6B47DC"/>
<path d="M124.367 31.14C123.079 31.14 122.081 30.8087 121.371 30.146C120.671 29.4833 120.298 28.55 120.251 27.346C120.242 27.094 120.237 26.6833 120.237 26.114C120.237 25.5353 120.242 25.1153 120.251 24.854C120.298 23.6593 120.676 22.7307 121.385 22.068C122.104 21.396 123.098 21.06 124.367 21.06C125.198 21.06 125.921 21.2047 126.537 21.494C127.153 21.774 127.629 22.1613 127.965 22.656C128.301 23.1413 128.479 23.692 128.497 24.308V24.336C128.497 24.4107 128.465 24.476 128.399 24.532C128.343 24.5787 128.278 24.602 128.203 24.602H126.873C126.761 24.602 126.677 24.5787 126.621 24.532C126.565 24.4853 126.519 24.3967 126.481 24.266C126.332 23.678 126.085 23.2673 125.739 23.034C125.394 22.7913 124.932 22.67 124.353 22.67C123.009 22.67 122.309 23.4213 122.253 24.924C122.244 25.176 122.239 25.5633 122.239 26.086C122.239 26.6087 122.244 27.0053 122.253 27.276C122.309 28.7787 123.009 29.53 124.353 29.53C124.932 29.53 125.394 29.4087 125.739 29.166C126.094 28.9233 126.341 28.5127 126.481 27.934C126.509 27.8033 126.551 27.7147 126.607 27.668C126.673 27.6213 126.761 27.598 126.873 27.598H128.203C128.287 27.598 128.357 27.626 128.413 27.682C128.479 27.738 128.507 27.808 128.497 27.892C128.479 28.508 128.301 29.0633 127.965 29.558C127.629 30.0433 127.153 30.4307 126.537 30.72C125.921 31 125.198 31.14 124.367 31.14ZM134.099 31.14C132.829 31.14 131.84 30.818 131.131 30.174C130.421 29.53 130.048 28.5733 130.011 27.304C130.001 27.0333 129.997 26.6367 129.997 26.114C129.997 25.582 130.001 25.1807 130.011 24.91C130.048 23.6687 130.431 22.7167 131.159 22.054C131.887 21.3913 132.867 21.06 134.099 21.06C135.331 21.06 136.311 21.3913 137.039 22.054C137.776 22.7167 138.163 23.6687 138.201 24.91C138.219 25.4513 138.229 25.8527 138.229 26.114C138.229 26.366 138.219 26.7627 138.201 27.304C138.154 28.5733 137.776 29.53 137.067 30.174C136.357 30.818 135.368 31.14 134.099 31.14ZM134.099 29.53C134.724 29.53 135.223 29.3433 135.597 28.97C135.97 28.5873 136.171 28.0087 136.199 27.234C136.217 26.674 136.227 26.296 136.227 26.1C136.227 25.8853 136.217 25.5073 136.199 24.966C136.171 24.1913 135.97 23.6173 135.597 23.244C135.223 22.8613 134.724 22.67 134.099 22.67C133.483 22.67 132.988 22.8613 132.615 23.244C132.241 23.6173 132.041 24.1913 132.013 24.966C132.003 25.2367 131.999 25.6147 131.999 26.1C131.999 26.576 132.003 26.954 132.013 27.234C132.041 28.0087 132.237 28.5873 132.601 28.97C132.974 29.3433 133.473 29.53 134.099 29.53ZM140.592 31C140.489 31 140.405 30.972 140.34 30.916C140.275 30.8507 140.242 30.7667 140.242 30.664V21.55C140.242 21.4473 140.275 21.3633 140.34 21.298C140.405 21.2327 140.489 21.2 140.592 21.2H141.698C141.894 21.2 142.034 21.2887 142.118 21.466L144.82 26.506L147.55 21.466C147.643 21.2887 147.783 21.2 147.97 21.2H149.062C149.165 21.2 149.249 21.2327 149.314 21.298C149.379 21.3633 149.412 21.4473 149.412 21.55V30.664C149.412 30.7667 149.379 30.8507 149.314 30.916C149.249 30.972 149.165 31 149.062 31H147.886C147.793 31 147.713 30.9673 147.648 30.902C147.583 30.8367 147.55 30.7573 147.55 30.664V24.602L145.59 28.34C145.469 28.5453 145.31 28.648 145.114 28.648H144.54C144.344 28.648 144.185 28.5453 144.064 28.34L142.104 24.602V30.664C142.104 30.7573 142.071 30.8367 142.006 30.902C141.95 30.9673 141.871 31 141.768 31H140.592ZM152.101 31C152.007 31 151.928 30.9673 151.863 30.902C151.797 30.8367 151.765 30.7573 151.765 30.664V21.55C151.765 21.4473 151.793 21.3633 151.849 21.298C151.914 21.2327 151.998 21.2 152.101 21.2H155.853C156.973 21.2 157.855 21.466 158.499 21.998C159.143 22.5207 159.465 23.2907 159.465 24.308C159.465 25.3253 159.143 26.0953 158.499 26.618C157.864 27.1313 156.982 27.388 155.853 27.388H153.767V30.664C153.767 30.7573 153.734 30.8367 153.669 30.902C153.613 30.9673 153.533 31 153.431 31H152.101ZM155.783 25.834C156.324 25.834 156.739 25.708 157.029 25.456C157.318 25.1947 157.463 24.812 157.463 24.308C157.463 23.8227 157.323 23.4447 157.043 23.174C156.763 22.894 156.343 22.754 155.783 22.754H153.739V25.834H155.783ZM161.504 31C161.411 31 161.332 30.9673 161.266 30.902C161.201 30.8367 161.168 30.7573 161.168 30.664V21.55C161.168 21.4473 161.196 21.3633 161.252 21.298C161.318 21.2327 161.402 21.2 161.504 21.2H165.13C166.269 21.2 167.16 21.466 167.804 21.998C168.458 22.53 168.784 23.286 168.784 24.266C168.784 24.9473 168.616 25.5213 168.28 25.988C167.954 26.4453 167.496 26.7767 166.908 26.982L168.952 30.552C168.98 30.608 168.994 30.6593 168.994 30.706C168.994 30.79 168.962 30.86 168.896 30.916C168.84 30.972 168.775 31 168.7 31H167.426C167.277 31 167.16 30.9673 167.076 30.902C167.002 30.8367 166.932 30.7433 166.866 30.622L165.06 27.304H163.114V30.664C163.114 30.7573 163.082 30.8367 163.016 30.902C162.96 30.9673 162.881 31 162.778 31H161.504ZM165.088 25.722C165.648 25.722 166.068 25.596 166.348 25.344C166.638 25.092 166.782 24.728 166.782 24.252C166.782 23.776 166.638 23.4073 166.348 23.146C166.068 22.8847 165.648 22.754 165.088 22.754H163.114V25.722H165.088ZM174.502 31.14C173.232 31.14 172.243 30.818 171.534 30.174C170.824 29.53 170.451 28.5733 170.414 27.304C170.404 27.0333 170.4 26.6367 170.4 26.114C170.4 25.582 170.404 25.1807 170.414 24.91C170.451 23.6687 170.834 22.7167 171.562 22.054C172.29 21.3913 173.27 21.06 174.502 21.06C175.734 21.06 176.714 21.3913 177.442 22.054C178.179 22.7167 178.566 23.6687 178.604 24.91C178.622 25.4513 178.632 25.8527 178.632 26.114C178.632 26.366 178.622 26.7627 178.604 27.304C178.557 28.5733 178.179 29.53 177.47 30.174C176.76 30.818 175.771 31.14 174.502 31.14ZM174.502 29.53C175.127 29.53 175.626 29.3433 176 28.97C176.373 28.5873 176.574 28.0087 176.602 27.234C176.62 26.674 176.63 26.296 176.63 26.1C176.63 25.8853 176.62 25.5073 176.602 24.966C176.574 24.1913 176.373 23.6173 176 23.244C175.626 22.8613 175.127 22.67 174.502 22.67C173.886 22.67 173.391 22.8613 173.018 23.244C172.644 23.6173 172.444 24.1913 172.416 24.966C172.406 25.2367 172.402 25.6147 172.402 26.1C172.402 26.576 172.406 26.954 172.416 27.234C172.444 28.0087 172.64 28.5873 173.004 28.97C173.377 29.3433 173.876 29.53 174.502 29.53ZM180.981 31C180.888 31 180.808 30.9673 180.743 30.902C180.678 30.8367 180.645 30.7573 180.645 30.664V21.55C180.645 21.4473 180.673 21.3633 180.729 21.298C180.794 21.2327 180.878 21.2 180.981 21.2H185.041C186.133 21.2 186.945 21.4427 187.477 21.928C188.018 22.404 188.289 23.0573 188.289 23.888C188.289 24.3733 188.168 24.7887 187.925 25.134C187.692 25.47 187.416 25.7127 187.099 25.862C187.491 26.0393 187.818 26.3287 188.079 26.73C188.35 27.1313 188.485 27.5887 188.485 28.102C188.485 28.97 188.191 29.67 187.603 30.202C187.024 30.734 186.208 31 185.153 31H180.981ZM184.789 25.218C185.274 25.218 185.643 25.1013 185.895 24.868C186.147 24.6347 186.273 24.322 186.273 23.93C186.273 23.5287 186.147 23.2207 185.895 23.006C185.643 22.782 185.274 22.67 184.789 22.67H182.591V25.218H184.789ZM184.929 29.516C185.414 29.516 185.792 29.3853 186.063 29.124C186.334 28.8533 186.469 28.5127 186.469 28.102C186.469 27.682 186.334 27.3413 186.063 27.08C185.792 26.8093 185.414 26.674 184.929 26.674H182.591V29.516H184.929ZM189.693 31C189.618 31 189.548 30.972 189.483 30.916C189.427 30.86 189.399 30.79 189.399 30.706L189.427 30.58L192.801 21.55C192.866 21.3167 193.029 21.2 193.291 21.2H194.817C195.059 21.2 195.223 21.3167 195.307 21.55L198.681 30.58C198.69 30.608 198.695 30.65 198.695 30.706C198.695 30.79 198.667 30.86 198.611 30.916C198.555 30.972 198.489 31 198.415 31H197.197C197.075 31 196.982 30.972 196.917 30.916C196.851 30.86 196.809 30.7993 196.791 30.734L196.133 29.026H191.975L191.317 30.734C191.242 30.9113 191.107 31 190.911 31H189.693ZM195.643 27.416L194.047 23.09L192.465 27.416H195.643ZM200.513 31C200.419 31 200.34 30.9673 200.275 30.902C200.209 30.8367 200.177 30.7573 200.177 30.664V21.55C200.177 21.4473 200.205 21.3633 200.261 21.298C200.326 21.2327 200.41 21.2 200.513 21.2H204.139C205.277 21.2 206.169 21.466 206.813 21.998C207.466 22.53 207.793 23.286 207.793 24.266C207.793 24.9473 207.625 25.5213 207.289 25.988C206.962 26.4453 206.505 26.7767 205.917 26.982L207.961 30.552C207.989 30.608 208.003 30.6593 208.003 30.706C208.003 30.79 207.97 30.86 207.905 30.916C207.849 30.972 207.783 31 207.709 31H206.435C206.285 31 206.169 30.9673 206.085 30.902C206.01 30.8367 205.94 30.7433 205.875 30.622L204.069 27.304H202.123V30.664C202.123 30.7573 202.09 30.8367 202.025 30.902C201.969 30.9673 201.889 31 201.787 31H200.513ZM204.097 25.722C204.657 25.722 205.077 25.596 205.357 25.344C205.646 25.092 205.791 24.728 205.791 24.252C205.791 23.776 205.646 23.4073 205.357 23.146C205.077 22.8847 204.657 22.754 204.097 22.754H202.123V25.722H204.097Z" fill="#FFFFFE"/>
</svg>
