<svg width="75" height="159" viewBox="0 0 75 159" fill="none" xmlns="http://www.w3.org/2000/svg">
<path fill-rule="evenodd" clip-rule="evenodd" d="M48.2863 74.4229C48.2863 74.4229 52.1759 75.6286 53.2128 79.2508C53.9597 81.8579 51.4146 81.6648 51.4146 81.6648L49.6164 81.0613H25.3682L23.57 81.6648C23.57 81.6648 21.025 81.8579 21.7718 79.2508C22.8094 75.6286 26.6989 74.4229 26.6989 74.4229H48.2863Z" fill="#0C9684"/>
<path fill-rule="evenodd" clip-rule="evenodd" d="M23.265 152.965C26.9885 152.449 30.0748 153.516 30.0748 156.284C30.0748 159.052 27.0232 159 23.265 159C19.5061 159 16.5864 158.449 16.5864 156.887C16.5864 155.326 18.9067 153.568 23.265 152.965Z" fill="#F2F2F2"/>
<path fill-rule="evenodd" clip-rule="evenodd" d="M51.735 152.965C48.0115 152.449 44.9252 153.516 44.9252 156.284C44.9252 159.052 47.9768 159 51.735 159C55.4939 159 58.4136 158.449 58.4136 156.887C58.4136 155.326 56.0933 153.568 51.735 152.965Z" fill="#F2F2F2"/>
<path fill-rule="evenodd" clip-rule="evenodd" d="M16.652 120.972H43.6296C43.6296 120.972 33.815 143.368 30.9292 149.951C30.4503 151.045 29.375 151.75 28.1872 151.75C27.4431 151.75 26.5858 151.75 25.8042 151.75C24.3976 151.75 23.1806 150.766 22.8778 149.383C21.2974 142.173 16.652 120.972 16.652 120.972Z" fill="#867BBD"/>
<path fill-rule="evenodd" clip-rule="evenodd" d="M58.7081 120.972H31.7305C31.7305 120.972 41.5451 143.368 44.4309 149.951C44.9098 151.045 45.9851 151.75 47.1729 151.75C47.917 151.75 48.7743 151.75 49.5559 151.75C50.9625 151.75 52.1795 150.766 52.4823 149.383C54.0627 142.173 58.7081 120.972 58.7081 120.972Z" fill="#867BBD"/>
<path fill-rule="evenodd" clip-rule="evenodd" d="M49.5925 81.693C47.4963 82.6997 50.2049 89.7575 53.6895 102.092C56.6746 112.66 61.959 120.527 64.6563 119.231C67.3537 117.935 66.5773 107.757 61.8878 97.8387C57.1983 87.9209 51.6887 80.6862 49.5925 81.693Z" fill="#E8C7A3"/>
<path fill-rule="evenodd" clip-rule="evenodd" d="M63.6073 120.942C61.239 121.176 60.6625 124.759 60.0063 127.358C59.4669 129.493 61.0854 132.1 64.0508 131.807C66.4191 131.574 68.4342 128.397 68.3066 125.933C68.1559 123.028 66.5726 120.649 63.6073 120.942Z" fill="#E8C7A3"/>
<path fill-rule="evenodd" clip-rule="evenodd" d="M25.4078 81.693C27.5039 82.6998 24.7953 89.7575 21.3107 102.092C18.3256 112.66 12.9256 120.526 10.2282 119.231C7.53085 117.935 8.4229 107.757 13.1124 97.8387C17.802 87.9209 23.3116 80.6862 25.4078 81.693Z" fill="#E8C7A3"/>
<path fill-rule="evenodd" clip-rule="evenodd" d="M11.3929 120.942C13.7613 121.176 14.3377 124.759 14.994 127.358C15.5333 129.493 13.9148 132.1 10.9495 131.807C8.58116 131.574 6.56608 128.397 6.69366 125.933C6.84434 123.028 8.4276 120.649 11.3929 120.942Z" fill="#E8C7A3"/>
<path fill-rule="evenodd" clip-rule="evenodd" d="M58.5489 121.146L16.5864 121.151L25.5821 81.9189L37.5703 79.5049L49.5579 81.9189L58.5489 121.146Z" fill="#E8C7A3"/>
<path fill-rule="evenodd" clip-rule="evenodd" d="M43.3584 77.4403C43.3584 75.7747 42.0157 74.4229 40.3614 74.4229H34.3674C32.713 74.4229 31.3704 75.7747 31.3704 77.4403V89.5102C31.3704 91.1758 32.713 92.5277 34.3674 92.5277H40.3614C42.0157 92.5277 43.3584 91.1758 43.3584 89.5102V77.4403Z" fill="#E8C7A3"/>
<path fill-rule="evenodd" clip-rule="evenodd" d="M68.9454 39.7464C68.9454 25.624 57.5573 14.1582 43.5307 14.1582H30.8235C16.7969 14.1582 5.40881 25.624 5.40881 39.7464V52.5404C5.40881 66.6628 16.7969 78.1286 30.8235 78.1286H43.5307C57.5573 78.1286 68.9454 66.6628 68.9454 52.5404V39.7464Z" fill="#E8C7A3"/>
<path fill-rule="evenodd" clip-rule="evenodd" d="M11.8653 50.4879C11.5242 49.2021 10.2083 48.4398 8.92802 48.7864L4.2892 50.0421C3.00889 50.3887 2.47025 51.3664 1.98748 53.0001C1.63924 54.1779 1.32101 56.2138 1.86884 58.2488C2.37748 60.1384 3.56673 61.9698 4.61327 62.8998C5.4597 63.6519 6.87034 64.9471 8.15065 64.6006L12.7895 63.3449C14.0698 62.9983 14.8321 61.6735 14.4911 60.3877L11.8653 50.4879Z" fill="#E8C7A3"/>
<path fill-rule="evenodd" clip-rule="evenodd" d="M63.1347 50.4879C63.4757 49.2021 64.7916 48.4398 66.0719 48.7864L70.7107 50.0421C71.991 50.3887 72.5297 51.3664 73.0125 53.0001C73.3607 54.1779 73.6789 56.2138 73.1311 58.2488C72.6225 60.1384 71.4332 61.9698 70.3867 62.8998C69.5402 63.6519 68.1296 64.9471 66.8493 64.6006L62.2105 63.3449C60.9302 62.9983 60.1678 61.6735 60.5089 60.3877L63.1347 50.4879Z" fill="#E8C7A3"/>
<path fill-rule="evenodd" clip-rule="evenodd" d="M33.5953 65.5423C33.4879 65.5026 33.3679 65.5237 33.2815 65.5989C33.195 65.6741 33.1564 65.7907 33.1799 65.903C33.6104 67.036 35.2896 67.8877 37.2943 67.8877C39.2991 67.8877 40.9783 67.036 41.392 65.8996C41.4138 65.7932 41.3769 65.6834 41.2955 65.6124C41.2141 65.5414 41.1008 65.5211 40.9992 65.5583C40.0275 65.8709 38.7075 66.1134 37.2943 66.1134C35.8812 66.1134 34.5612 65.8709 33.5953 65.5423Z" fill="#562E32"/>
<path d="M24.9921 61.5794C26.6473 61.5794 27.9891 60.2284 27.9891 58.5619C27.9891 56.8954 26.6473 55.5444 24.9921 55.5444C23.3369 55.5444 21.9951 56.8954 21.9951 58.5619C21.9951 60.2284 23.3369 61.5794 24.9921 61.5794Z" fill="#562E32"/>
<path fill-rule="evenodd" clip-rule="evenodd" d="M26.1842 46.6358C27.9614 44.7535 24.9698 44.3745 22.5878 44.8253C19.8276 45.348 16.7233 46.5749 16.5938 47.2393C16.4643 47.9038 18.0318 46.6618 21.9884 46.6358C24.1469 46.6213 25.8012 47.0414 26.1842 46.6358Z" fill="#562E32"/>
<path d="M50.0079 61.5794C48.3527 61.5794 47.0109 60.2284 47.0109 58.5619C47.0109 56.8954 48.3527 55.5444 50.0079 55.5444C51.6631 55.5444 53.0049 56.8954 53.0049 58.5619C53.0049 60.2284 51.6631 61.5794 50.0079 61.5794Z" fill="#562E32"/>
<path fill-rule="evenodd" clip-rule="evenodd" d="M48.8158 46.6358C47.0385 44.7535 50.0302 44.3745 52.4122 44.8253C55.1724 45.348 58.2767 46.5749 58.4062 47.2393C58.5357 47.9038 56.9682 46.6618 53.0116 46.6358C50.8531 46.6213 49.1988 47.0414 48.8158 46.6358Z" fill="#562E32"/>
<path fill-rule="evenodd" clip-rule="evenodd" d="M59.8605 122.717L57.0541 111.885L60.129 117.876L61.7036 118.804L62.4859 119.802L64.6773 119.436L66.8687 119.071L67.0605 117.277L67.8846 115.665C67.8846 115.665 67.0515 107.284 61.4363 96.2167C59.0675 91.5487 56.6639 86.8885 53.155 83.203C51.6295 81.6007 49.6707 81.0756 49.6707 81.0756L43.6766 79.8687L37.5489 84.0931L31.4189 79.8687L25.4248 81.0756C25.4248 81.0756 23.4666 81.6007 21.9411 83.203C18.4316 86.8885 16.0286 91.5487 13.6598 96.2167C8.04459 107.284 7.21143 115.665 7.21143 115.665L8.0356 117.277L8.22679 119.071L12.6102 119.802L13.3925 118.804L14.9671 117.876L18.0414 111.885L15.235 122.717C15.235 122.717 22.317 124.527 37.5466 124.527C52.7768 124.527 59.8605 122.717 59.8605 122.717Z" fill="#0C9684"/>
<path fill-rule="evenodd" clip-rule="evenodd" d="M41.8226 86.9417C41.8226 86.4442 41.421 86.04 40.927 86.04H40.9199C40.426 86.04 40.0244 86.4442 40.0244 86.9417V95.5487C40.0244 96.0461 40.426 96.4503 40.9199 96.4503H40.927C41.421 96.4503 41.8226 96.0461 41.8226 95.5487V86.9417Z" fill="#E6E6E6"/>
<path fill-rule="evenodd" clip-rule="evenodd" d="M35.332 86.9415C35.332 86.4439 34.9304 86.04 34.4365 86.04H34.4293C33.9354 86.04 33.5338 86.4439 33.5338 86.9415V97.8119C33.5338 98.3095 33.9354 98.7134 34.4293 98.7134H34.4365C34.9304 98.7134 35.332 98.3095 35.332 97.8119V86.9415Z" fill="#E6E6E6"/>
<path fill-rule="evenodd" clip-rule="evenodd" d="M5.57923 49.869C6.76185 49.6656 8.1129 52.1297 8.1129 52.1297C8.1129 52.1297 13.7401 40.9621 14.0092 34.6284C14.1765 30.6978 13.8989 28.5934 13.8989 28.5934C13.8989 28.5934 19.869 24.5796 30.6822 28.5934C41.4954 32.6073 53.4594 27.3865 53.4594 27.3865C53.4594 27.3865 53.0267 32.5162 55.8571 37.6459C58.6874 42.7756 66.6463 51.828 66.6463 51.828C66.6463 51.828 67.7426 49.099 69.1158 49.2655C70.489 49.4315 71.4415 50.3192 71.4415 50.3192C71.4415 50.3192 74.2539 34.5149 71.4415 24.369C68.6291 14.223 61.4621 14.835 60.0529 14.1096C58.6437 13.3842 59.8892 9.7427 57.6553 7.47115C55.4213 5.1996 41.6123 -4.64158 24.6882 2.6432C7.76405 9.92798 10.1269 19.1113 9.10371 20.748C8.08054 22.3847 4.71549 20.9218 3.1097 31.0074C1.5039 41.093 3.7091 50.3192 3.7091 50.3192C3.7091 50.3192 4.39661 50.0718 5.57923 49.869Z" fill="#AA3F39"/>
</svg>
