<svg width="360" height="69" viewBox="0 0 360 69" fill="none" xmlns="http://www.w3.org/2000/svg">
<rect width="360" height="69" fill="#232E35"/>
<rect x="26" y="12" width="39" height="45" rx="19.5" fill="#232E35"/>
<path fill-rule="evenodd" clip-rule="evenodd" d="M46.1139 13.2106C45.7528 12.9298 45.2472 12.9298 44.8861 13.2106L35.8861 20.2106C35.6425 20.4001 35.5 20.6914 35.5 21V32C35.5 32.7957 35.8161 33.5587 36.3787 34.1213C36.9413 34.6839 37.7043 35 38.5 35H42.5H48.5H52.5C53.2957 35 54.0587 34.6839 54.6213 34.1213C55.1839 33.5587 55.5 32.7957 55.5 32V21C55.5 20.6914 55.3575 20.4001 55.1139 20.2106L46.1139 13.2106ZM49.5 33H52.5C52.7652 33 53.0196 32.8946 53.2071 32.7071C53.3946 32.5196 53.5 32.2652 53.5 32V21.4891L45.5 15.2669L37.5 21.4891V32C37.5 32.2652 37.6054 32.5196 37.7929 32.7071C37.9804 32.8946 38.2348 33 38.5 33H41.5V24C41.5 23.4477 41.9477 23 42.5 23H48.5C49.0523 23 49.5 23.4477 49.5 24V33ZM43.5 33V25H47.5V33H43.5Z" fill="#2CB67D"/>
<path d="M27.792 52.098C27.4093 52.098 27.218 51.8973 27.218 51.496V42.634C27.218 42.2327 27.4093 42.032 27.792 42.032C28.1747 42.032 28.366 42.2327 28.366 42.634V46.498H34.288V42.634C34.288 42.2327 34.4793 42.032 34.862 42.032C35.2447 42.032 35.436 42.2327 35.436 42.634V51.496C35.436 51.8973 35.2447 52.098 34.862 52.098C34.4793 52.098 34.288 51.8973 34.288 51.496V47.492H28.366V51.496C28.366 51.8973 28.1747 52.098 27.792 52.098ZM40.6124 52.126C39.9497 52.126 39.3757 51.9813 38.8904 51.692C38.4051 51.4027 38.0271 50.9967 37.7564 50.474C37.4951 49.942 37.3644 49.3167 37.3644 48.598C37.3644 47.8793 37.4951 47.2587 37.7564 46.736C38.0271 46.204 38.4051 45.7933 38.8904 45.504C39.3757 45.2147 39.9497 45.07 40.6124 45.07C41.2657 45.07 41.8351 45.2147 42.3204 45.504C42.8151 45.7933 43.1931 46.204 43.4544 46.736C43.7251 47.2587 43.8604 47.8793 43.8604 48.598C43.8604 49.3167 43.7251 49.942 43.4544 50.474C43.1931 50.9967 42.8151 51.4027 42.3204 51.692C41.8351 51.9813 41.2657 52.126 40.6124 52.126ZM40.6124 51.216C41.2471 51.216 41.7557 50.992 42.1384 50.544C42.5211 50.0867 42.7124 49.438 42.7124 48.598C42.7124 47.7487 42.5211 47.1 42.1384 46.652C41.7557 46.204 41.2471 45.98 40.6124 45.98C39.9684 45.98 39.4551 46.204 39.0724 46.652C38.6991 47.1 38.5124 47.7487 38.5124 48.598C38.5124 49.438 38.6991 50.0867 39.0724 50.544C39.4551 50.992 39.9684 51.216 40.6124 51.216ZM46.2217 52.098C45.8484 52.098 45.6617 51.902 45.6617 51.51V45.672C45.6617 45.2893 45.8437 45.098 46.2077 45.098C46.581 45.098 46.7677 45.2893 46.7677 45.672V46.344C46.973 45.9333 47.2577 45.6207 47.6217 45.406C47.9857 45.182 48.4104 45.07 48.8957 45.07C49.9597 45.07 50.641 45.532 50.9397 46.456C51.145 46.0267 51.4484 45.6907 51.8497 45.448C52.251 45.196 52.713 45.07 53.2357 45.07C54.7477 45.07 55.5037 45.966 55.5037 47.758V51.51C55.5037 51.902 55.3124 52.098 54.9297 52.098C54.5564 52.098 54.3697 51.902 54.3697 51.51V47.814C54.3697 47.1887 54.2577 46.7313 54.0337 46.442C53.819 46.1433 53.4597 45.994 52.9557 45.994C52.405 45.994 51.9664 46.19 51.6397 46.582C51.313 46.974 51.1497 47.4967 51.1497 48.15V51.51C51.1497 51.902 50.9584 52.098 50.5757 52.098C50.2024 52.098 50.0157 51.902 50.0157 51.51V47.814C50.0157 47.1887 49.9037 46.7313 49.6797 46.442C49.465 46.1433 49.1057 45.994 48.6017 45.994C48.0417 45.994 47.5984 46.19 47.2717 46.582C46.9544 46.974 46.7957 47.4967 46.7957 48.15V51.51C46.7957 51.902 46.6044 52.098 46.2217 52.098ZM60.7599 52.126C59.6866 52.126 58.8373 51.8133 58.2119 51.188C57.5866 50.5533 57.2739 49.6947 57.2739 48.612C57.2739 47.912 57.4139 47.296 57.6939 46.764C57.9739 46.2227 58.3566 45.8073 58.8419 45.518C59.3366 45.2193 59.9059 45.07 60.5499 45.07C61.4739 45.07 62.1973 45.3687 62.7199 45.966C63.2426 46.554 63.5039 47.366 63.5039 48.402C63.5039 48.6913 63.3406 48.836 63.0139 48.836H58.3799C58.4173 49.6107 58.6413 50.2033 59.0519 50.614C59.4626 51.0153 60.0319 51.216 60.7599 51.216C61.0679 51.216 61.3806 51.1787 61.6979 51.104C62.0153 51.02 62.3233 50.8753 62.6219 50.67C62.8366 50.53 63.0139 50.502 63.1539 50.586C63.3033 50.67 63.3779 50.8007 63.3779 50.978C63.3873 51.146 63.2939 51.2953 63.0979 51.426C62.7899 51.65 62.4213 51.8227 61.9919 51.944C61.5719 52.0653 61.1613 52.126 60.7599 52.126ZM60.5779 45.91C59.9339 45.91 59.4253 46.1107 59.0519 46.512C58.6786 46.9133 58.4593 47.4407 58.3939 48.094H62.5239C62.4959 47.4033 62.3139 46.8667 61.9779 46.484C61.6513 46.1013 61.1846 45.91 60.5779 45.91Z" fill="#2CB67D"/>
<rect x="145" y="12" width="75" height="45" rx="22.5" fill="#232E35"/>
<path fill-rule="evenodd" clip-rule="evenodd" d="M180.449 14.6838C180.313 14.2754 179.93 14 179.5 14C179.07 14 178.687 14.2754 178.551 14.6838L175.779 23H172.5C171.948 23 171.5 23.4477 171.5 24C171.5 24.5523 171.948 25 172.5 25H176.5C176.93 25 177.313 24.7246 177.449 24.3162L179.5 18.1623L184.551 33.3162C184.687 33.7246 185.07 34 185.5 34C185.93 34 186.313 33.7246 186.449 33.3162L189.221 25H192.5C193.052 25 193.5 24.5523 193.5 24C193.5 23.4477 193.052 23 192.5 23H188.5C188.07 23 187.687 23.2754 187.551 23.6838L185.5 29.8377L180.449 14.6838Z" fill="#FFFFFE"/>
<path d="M146.848 52C146.428 52 146.218 51.79 146.218 51.37V42.76C146.218 42.34 146.428 42.13 146.848 42.13H152.056C152.383 42.13 152.546 42.2887 152.546 42.606C152.546 42.9327 152.383 43.096 152.056 43.096H147.338V46.512H151.762C152.089 46.512 152.252 46.6707 152.252 46.988C152.252 47.3147 152.089 47.478 151.762 47.478H147.338V51.034H152.056C152.383 51.034 152.546 51.1927 152.546 51.51C152.546 51.8367 152.383 52 152.056 52H146.848ZM156.483 52.126C156.063 52.126 155.638 52.0747 155.209 51.972C154.789 51.86 154.397 51.6827 154.033 51.44C153.865 51.3373 153.781 51.2067 153.781 51.048C153.79 50.88 153.855 50.7493 153.977 50.656C154.098 50.5627 154.252 50.5627 154.439 50.656C154.803 50.88 155.153 51.0387 155.489 51.132C155.834 51.216 156.175 51.258 156.511 51.258C157.043 51.258 157.444 51.16 157.715 50.964C157.985 50.768 158.121 50.502 158.121 50.166C158.121 49.9047 158.032 49.6993 157.855 49.55C157.677 49.3913 157.397 49.27 157.015 49.186L155.741 48.906C154.583 48.654 154.005 48.0567 154.005 47.114C154.005 46.498 154.247 46.0033 154.733 45.63C155.227 45.2567 155.871 45.07 156.665 45.07C157.066 45.07 157.453 45.126 157.827 45.238C158.2 45.3407 158.536 45.5087 158.835 45.742C158.993 45.854 159.063 45.9893 159.045 46.148C159.026 46.3067 158.951 46.4327 158.821 46.526C158.699 46.61 158.55 46.596 158.373 46.484C158.093 46.2973 157.808 46.162 157.519 46.078C157.229 45.9847 156.945 45.938 156.665 45.938C156.142 45.938 155.745 46.0407 155.475 46.246C155.204 46.4513 155.069 46.722 155.069 47.058C155.069 47.5807 155.414 47.9167 156.105 48.066L157.379 48.332C157.976 48.4627 158.429 48.6727 158.737 48.962C159.045 49.242 159.199 49.6247 159.199 50.11C159.199 50.7353 158.951 51.23 158.457 51.594C157.962 51.9487 157.304 52.126 156.483 52.126ZM163.659 52.126C162.856 52.126 162.254 51.916 161.853 51.496C161.451 51.0667 161.251 50.4507 161.251 49.648V46.078H160.313C159.986 46.078 159.823 45.9287 159.823 45.63C159.823 45.3407 159.986 45.196 160.313 45.196H161.251V43.586C161.251 43.2033 161.442 43.012 161.825 43.012C162.198 43.012 162.385 43.2033 162.385 43.586V45.196H164.149C164.475 45.196 164.639 45.3407 164.639 45.63C164.639 45.9287 164.475 46.078 164.149 46.078H162.385V49.536C162.385 50.068 162.497 50.474 162.721 50.754C162.945 51.0247 163.309 51.16 163.813 51.16C163.99 51.16 164.139 51.1413 164.261 51.104C164.382 51.0667 164.489 51.048 164.583 51.048C164.667 51.0387 164.737 51.0667 164.793 51.132C164.849 51.1973 164.877 51.3093 164.877 51.468C164.877 51.58 164.853 51.6827 164.807 51.776C164.769 51.8693 164.699 51.9347 164.597 51.972C164.485 52.0093 164.335 52.042 164.149 52.07C163.971 52.1073 163.808 52.126 163.659 52.126ZM168.035 52.126C167.568 52.126 167.148 52.0373 166.775 51.86C166.411 51.6733 166.122 51.4213 165.907 51.104C165.692 50.7867 165.585 50.432 165.585 50.04C165.585 49.5453 165.711 49.1533 165.963 48.864C166.224 48.5747 166.649 48.3693 167.237 48.248C167.834 48.1173 168.646 48.052 169.673 48.052H170.121V47.618C170.121 47.0393 170 46.624 169.757 46.372C169.524 46.1107 169.146 45.98 168.623 45.98C168.296 45.98 167.965 46.022 167.629 46.106C167.302 46.19 166.962 46.3253 166.607 46.512C166.448 46.596 166.313 46.6147 166.201 46.568C166.098 46.512 166.024 46.428 165.977 46.316C165.94 46.1947 165.94 46.0733 165.977 45.952C166.024 45.8213 166.117 45.7233 166.257 45.658C166.658 45.4527 167.06 45.3033 167.461 45.21C167.872 45.1167 168.259 45.07 168.623 45.07C169.5 45.07 170.149 45.2847 170.569 45.714C170.998 46.1433 171.213 46.8107 171.213 47.716V51.51C171.213 51.902 171.04 52.098 170.695 52.098C170.331 52.098 170.149 51.902 170.149 51.51V50.824C169.972 51.2253 169.696 51.5427 169.323 51.776C168.959 52.0093 168.53 52.126 168.035 52.126ZM168.217 51.272C168.777 51.272 169.234 51.0807 169.589 50.698C169.944 50.306 170.121 49.8113 170.121 49.214V48.794H169.687C168.931 48.794 168.334 48.8313 167.895 48.906C167.466 48.9713 167.162 49.0927 166.985 49.27C166.817 49.438 166.733 49.6713 166.733 49.97C166.733 50.3527 166.864 50.6653 167.125 50.908C167.396 51.1507 167.76 51.272 168.217 51.272ZM175.977 52.126C175.37 52.126 174.838 51.9813 174.381 51.692C173.933 51.4027 173.583 50.9967 173.331 50.474C173.088 49.942 172.967 49.3167 172.967 48.598C172.967 47.87 173.088 47.2447 173.331 46.722C173.583 46.19 173.933 45.784 174.381 45.504C174.838 45.2147 175.37 45.07 175.977 45.07C176.509 45.07 176.976 45.1867 177.377 45.42C177.788 45.6533 178.091 45.9753 178.287 46.386V42.606C178.287 42.2233 178.478 42.032 178.861 42.032C179.234 42.032 179.421 42.2233 179.421 42.606V51.51C179.421 51.902 179.234 52.098 178.861 52.098C178.488 52.098 178.301 51.902 178.301 51.51V50.782C178.096 51.202 177.788 51.5333 177.377 51.776C176.976 52.0093 176.509 52.126 175.977 52.126ZM176.215 51.216C176.85 51.216 177.358 50.992 177.741 50.544C178.124 50.0867 178.315 49.438 178.315 48.598C178.315 47.7487 178.124 47.1 177.741 46.652C177.358 46.204 176.85 45.98 176.215 45.98C175.571 45.98 175.058 46.204 174.675 46.652C174.302 47.1 174.115 47.7487 174.115 48.598C174.115 49.438 174.302 50.0867 174.675 50.544C175.058 50.992 175.571 51.216 176.215 51.216ZM182.179 52.07C181.806 52.07 181.619 51.8647 181.619 51.454V45.728C181.619 45.3267 181.806 45.126 182.179 45.126C182.562 45.126 182.753 45.3267 182.753 45.728V51.454C182.753 51.8647 182.562 52.07 182.179 52.07ZM182.641 44.216C182.557 44.3467 182.45 44.4073 182.319 44.398C182.188 44.3793 182.081 44.3233 181.997 44.23C181.922 44.1273 181.918 44.0013 181.983 43.852L183.159 41.57C183.243 41.4113 183.35 41.318 183.481 41.29C183.621 41.262 183.747 41.2807 183.859 41.346C183.98 41.4113 184.064 41.5093 184.111 41.64C184.158 41.7613 184.134 41.892 184.041 42.032L182.641 44.216ZM187.239 52.126C186.819 52.126 186.394 52.0747 185.965 51.972C185.545 51.86 185.153 51.6827 184.789 51.44C184.621 51.3373 184.537 51.2067 184.537 51.048C184.546 50.88 184.612 50.7493 184.733 50.656C184.854 50.5627 185.008 50.5627 185.195 50.656C185.559 50.88 185.909 51.0387 186.245 51.132C186.59 51.216 186.931 51.258 187.267 51.258C187.799 51.258 188.2 51.16 188.471 50.964C188.742 50.768 188.877 50.502 188.877 50.166C188.877 49.9047 188.788 49.6993 188.611 49.55C188.434 49.3913 188.154 49.27 187.771 49.186L186.497 48.906C185.34 48.654 184.761 48.0567 184.761 47.114C184.761 46.498 185.004 46.0033 185.489 45.63C185.984 45.2567 186.628 45.07 187.421 45.07C187.822 45.07 188.21 45.126 188.583 45.238C188.956 45.3407 189.292 45.5087 189.591 45.742C189.75 45.854 189.82 45.9893 189.801 46.148C189.782 46.3067 189.708 46.4327 189.577 46.526C189.456 46.61 189.306 46.596 189.129 46.484C188.849 46.2973 188.564 46.162 188.275 46.078C187.986 45.9847 187.701 45.938 187.421 45.938C186.898 45.938 186.502 46.0407 186.231 46.246C185.96 46.4513 185.825 46.722 185.825 47.058C185.825 47.5807 186.17 47.9167 186.861 48.066L188.135 48.332C188.732 48.4627 189.185 48.6727 189.493 48.962C189.801 49.242 189.955 49.6247 189.955 50.11C189.955 50.7353 189.708 51.23 189.213 51.594C188.718 51.9487 188.06 52.126 187.239 52.126ZM194.415 52.126C193.612 52.126 193.01 51.916 192.609 51.496C192.208 51.0667 192.007 50.4507 192.007 49.648V46.078H191.069C190.742 46.078 190.579 45.9287 190.579 45.63C190.579 45.3407 190.742 45.196 191.069 45.196H192.007V43.586C192.007 43.2033 192.198 43.012 192.581 43.012C192.954 43.012 193.141 43.2033 193.141 43.586V45.196H194.905C195.232 45.196 195.395 45.3407 195.395 45.63C195.395 45.9287 195.232 46.078 194.905 46.078H193.141V49.536C193.141 50.068 193.253 50.474 193.477 50.754C193.701 51.0247 194.065 51.16 194.569 51.16C194.746 51.16 194.896 51.1413 195.017 51.104C195.138 51.0667 195.246 51.048 195.339 51.048C195.423 51.0387 195.493 51.0667 195.549 51.132C195.605 51.1973 195.633 51.3093 195.633 51.468C195.633 51.58 195.61 51.6827 195.563 51.776C195.526 51.8693 195.456 51.9347 195.353 51.972C195.241 52.0093 195.092 52.042 194.905 52.07C194.728 52.1073 194.564 52.126 194.415 52.126ZM197.291 43.558C196.797 43.558 196.549 43.3247 196.549 42.858C196.549 42.4007 196.797 42.172 197.291 42.172C197.786 42.172 198.033 42.4007 198.033 42.858C198.033 43.3247 197.786 43.558 197.291 43.558ZM197.291 52.07C196.918 52.07 196.731 51.8647 196.731 51.454V45.728C196.731 45.3267 196.918 45.126 197.291 45.126C197.674 45.126 197.865 45.3267 197.865 45.728V51.454C197.865 51.8647 197.674 52.07 197.291 52.07ZM202.939 52.126C202.258 52.126 201.67 51.9813 201.175 51.692C200.681 51.3933 200.298 50.978 200.027 50.446C199.766 49.9047 199.635 49.2747 199.635 48.556C199.635 47.4733 199.929 46.624 200.517 46.008C201.105 45.3827 201.913 45.07 202.939 45.07C203.275 45.07 203.625 45.126 203.989 45.238C204.353 45.3407 204.685 45.5133 204.983 45.756C205.142 45.868 205.207 46.008 205.179 46.176C205.161 46.344 205.081 46.47 204.941 46.554C204.811 46.638 204.657 46.6193 204.479 46.498C204.227 46.3113 203.975 46.1807 203.723 46.106C203.481 46.0313 203.243 45.994 203.009 45.994C202.3 45.994 201.754 46.218 201.371 46.666C200.989 47.1047 200.797 47.7393 200.797 48.57C200.797 49.382 200.989 50.026 201.371 50.502C201.754 50.9687 202.3 51.202 203.009 51.202C203.243 51.202 203.481 51.1647 203.723 51.09C203.975 51.0153 204.227 50.8847 204.479 50.698C204.657 50.5767 204.811 50.5627 204.941 50.656C205.072 50.74 205.142 50.866 205.151 51.034C205.17 51.202 205.105 51.3373 204.955 51.44C204.657 51.6827 204.33 51.86 203.975 51.972C203.621 52.0747 203.275 52.126 202.939 52.126ZM208.693 52.126C208.226 52.126 207.806 52.0373 207.433 51.86C207.069 51.6733 206.78 51.4213 206.565 51.104C206.35 50.7867 206.243 50.432 206.243 50.04C206.243 49.5453 206.369 49.1533 206.621 48.864C206.882 48.5747 207.307 48.3693 207.895 48.248C208.492 48.1173 209.304 48.052 210.331 48.052H210.779V47.618C210.779 47.0393 210.658 46.624 210.415 46.372C210.182 46.1107 209.804 45.98 209.281 45.98C208.954 45.98 208.623 46.022 208.287 46.106C207.96 46.19 207.62 46.3253 207.265 46.512C207.106 46.596 206.971 46.6147 206.859 46.568C206.756 46.512 206.682 46.428 206.635 46.316C206.598 46.1947 206.598 46.0733 206.635 45.952C206.682 45.8213 206.775 45.7233 206.915 45.658C207.316 45.4527 207.718 45.3033 208.119 45.21C208.53 45.1167 208.917 45.07 209.281 45.07C210.158 45.07 210.807 45.2847 211.227 45.714C211.656 46.1433 211.871 46.8107 211.871 47.716V51.51C211.871 51.902 211.698 52.098 211.353 52.098C210.989 52.098 210.807 51.902 210.807 51.51V50.824C210.63 51.2253 210.354 51.5427 209.981 51.776C209.617 52.0093 209.188 52.126 208.693 52.126ZM208.875 51.272C209.435 51.272 209.892 51.0807 210.247 50.698C210.602 50.306 210.779 49.8113 210.779 49.214V48.794H210.345C209.589 48.794 208.992 48.8313 208.553 48.906C208.124 48.9713 207.82 49.0927 207.643 49.27C207.475 49.438 207.391 49.6713 207.391 49.97C207.391 50.3527 207.522 50.6653 207.783 50.908C208.054 51.1507 208.418 51.272 208.875 51.272ZM216.341 52.126C215.921 52.126 215.496 52.0747 215.067 51.972C214.647 51.86 214.255 51.6827 213.891 51.44C213.723 51.3373 213.639 51.2067 213.639 51.048C213.648 50.88 213.714 50.7493 213.835 50.656C213.956 50.5627 214.11 50.5627 214.297 50.656C214.661 50.88 215.011 51.0387 215.347 51.132C215.692 51.216 216.033 51.258 216.369 51.258C216.901 51.258 217.302 51.16 217.573 50.964C217.844 50.768 217.979 50.502 217.979 50.166C217.979 49.9047 217.89 49.6993 217.713 49.55C217.536 49.3913 217.256 49.27 216.873 49.186L215.599 48.906C214.442 48.654 213.863 48.0567 213.863 47.114C213.863 46.498 214.106 46.0033 214.591 45.63C215.086 45.2567 215.73 45.07 216.523 45.07C216.924 45.07 217.312 45.126 217.685 45.238C218.058 45.3407 218.394 45.5087 218.693 45.742C218.852 45.854 218.922 45.9893 218.903 46.148C218.884 46.3067 218.81 46.4327 218.679 46.526C218.558 46.61 218.408 46.596 218.231 46.484C217.951 46.2973 217.666 46.162 217.377 46.078C217.088 45.9847 216.803 45.938 216.523 45.938C216 45.938 215.604 46.0407 215.333 46.246C215.062 46.4513 214.927 46.722 214.927 47.058C214.927 47.5807 215.272 47.9167 215.963 48.066L217.237 48.332C217.834 48.4627 218.287 48.6727 218.595 48.962C218.903 49.242 219.057 49.6247 219.057 50.11C219.057 50.7353 218.81 51.23 218.315 51.594C217.82 51.9487 217.162 52.126 216.341 52.126Z" fill="#FFFFFE"/>
<rect x="300" y="12" width="34" height="45" rx="17" fill="#232E35"/>
<path fill-rule="evenodd" clip-rule="evenodd" d="M314 19C314 17.3431 315.343 16 317 16C318.657 16 320 17.3431 320 19C320 20.6569 318.657 22 317 22C315.343 22 314 20.6569 314 19ZM317 14C314.239 14 312 16.2386 312 19C312 21.7614 314.239 24 317 24C319.761 24 322 21.7614 322 19C322 16.2386 319.761 14 317 14ZM313 26C311.674 26 310.402 26.5268 309.464 27.4645C308.527 28.4021 308 29.6739 308 31V33C308 33.5523 308.448 34 309 34C309.552 34 310 33.5523 310 33V31C310 30.2043 310.316 29.4413 310.879 28.8787C311.441 28.3161 312.204 28 313 28H321C321.796 28 322.559 28.3161 323.121 28.8787C323.684 29.4413 324 30.2044 324 31V33C324 33.5523 324.448 34 325 34C325.552 34 326 33.5523 326 33V31C326 29.6739 325.473 28.4021 324.536 27.4645C323.598 26.5268 322.326 26 321 26H313Z" fill="#FFFFFE"/>
<path d="M301.792 52.098C301.409 52.098 301.218 51.8973 301.218 51.496V42.718C301.218 42.326 301.414 42.13 301.806 42.13H305.124C306.188 42.13 307 42.3867 307.56 42.9C308.129 43.4133 308.414 44.146 308.414 45.098C308.414 46.0407 308.129 46.7733 307.56 47.296C307 47.8093 306.188 48.066 305.124 48.066H302.366V51.496C302.366 51.8973 302.175 52.098 301.792 52.098ZM302.366 47.1H304.984C306.515 47.1 307.28 46.4327 307.28 45.098C307.28 43.754 306.515 43.082 304.984 43.082H302.366V47.1ZM312.745 52.126C311.672 52.126 310.822 51.8133 310.197 51.188C309.572 50.5533 309.259 49.6947 309.259 48.612C309.259 47.912 309.399 47.296 309.679 46.764C309.959 46.2227 310.342 45.8073 310.827 45.518C311.322 45.2193 311.891 45.07 312.535 45.07C313.459 45.07 314.182 45.3687 314.705 45.966C315.228 46.554 315.489 47.366 315.489 48.402C315.489 48.6913 315.326 48.836 314.999 48.836H310.365C310.402 49.6107 310.626 50.2033 311.037 50.614C311.448 51.0153 312.017 51.216 312.745 51.216C313.053 51.216 313.366 51.1787 313.683 51.104C314 51.02 314.308 50.8753 314.607 50.67C314.822 50.53 314.999 50.502 315.139 50.586C315.288 50.67 315.363 50.8007 315.363 50.978C315.372 51.146 315.279 51.2953 315.083 51.426C314.775 51.65 314.406 51.8227 313.977 51.944C313.557 52.0653 313.146 52.126 312.745 52.126ZM312.563 45.91C311.919 45.91 311.41 46.1107 311.037 46.512C310.664 46.9133 310.444 47.4407 310.379 48.094H314.509C314.481 47.4033 314.299 46.8667 313.963 46.484C313.636 46.1013 313.17 45.91 312.563 45.91ZM317.774 52.098C317.391 52.098 317.2 51.902 317.2 51.51V45.672C317.2 45.2893 317.382 45.098 317.746 45.098C318.119 45.098 318.306 45.2893 318.306 45.672V46.414C318.493 45.9847 318.782 45.658 319.174 45.434C319.566 45.2007 320.033 45.0747 320.574 45.056C320.873 45.028 321.031 45.1773 321.05 45.504C321.078 45.8307 320.91 46.0127 320.546 46.05L320.322 46.078C319.678 46.134 319.188 46.3393 318.852 46.694C318.516 47.0393 318.348 47.5153 318.348 48.122V51.51C318.348 51.902 318.157 52.098 317.774 52.098ZM323.581 52.098C323.207 52.098 323.021 51.902 323.021 51.51V46.078H322.125C321.798 46.078 321.635 45.9287 321.635 45.63C321.635 45.3407 321.798 45.196 322.125 45.196H323.021V44.958C323.021 43.222 323.861 42.284 325.541 42.144L325.961 42.102C326.138 42.0833 326.269 42.116 326.353 42.2C326.437 42.284 326.479 42.3867 326.479 42.508C326.479 42.62 326.446 42.7273 326.381 42.83C326.325 42.9233 326.241 42.9747 326.129 42.984L325.709 43.012C325.158 43.0493 324.761 43.222 324.519 43.53C324.276 43.838 324.155 44.2673 324.155 44.818V45.196H327.795C328.168 45.196 328.355 45.3967 328.355 45.798V51.454C328.355 51.8647 328.168 52.07 327.795 52.07C327.412 52.07 327.221 51.8647 327.221 51.454V46.078H324.155V51.51C324.155 51.902 323.963 52.098 323.581 52.098ZM327.809 43.558C327.323 43.558 327.081 43.3247 327.081 42.858C327.081 42.4007 327.323 42.172 327.809 42.172C328.294 42.172 328.537 42.4007 328.537 42.858C328.537 43.3247 328.294 43.558 327.809 43.558ZM332.619 52.126C331.947 52.126 331.434 51.9253 331.079 51.524C330.724 51.1133 330.547 50.5207 330.547 49.746V42.606C330.547 42.2233 330.734 42.032 331.107 42.032C331.49 42.032 331.681 42.2233 331.681 42.606V49.662C331.681 50.6607 332.078 51.16 332.871 51.16C332.955 51.16 333.03 51.1553 333.095 51.146C333.16 51.1367 333.226 51.132 333.291 51.132C333.394 51.1227 333.464 51.146 333.501 51.202C333.548 51.258 333.571 51.37 333.571 51.538C333.571 51.8553 333.412 52.0373 333.095 52.084C333.02 52.1027 332.941 52.112 332.857 52.112C332.773 52.1213 332.694 52.126 332.619 52.126Z" fill="#FFFFFE"/>
</svg>
